# xmcd
#
# Track frame offsets: 
#        150
#        14180
#        33360
#        48160
#        64012
#        75552
#        87670
#        100405
#        111817
#        128835
#        140772
#        151365
#        166085
#        176470
#        186082
#        198747
#        216287
#
# Disc length: 3063 seconds
#
# Revision: 0
# Processed by: cddbd v1.4PL0 Copyright (c) Steve Scherf et al.
# Submitted via: ExactAudioCopy v0.90b3
#
DISCID=f00bf511
DTITLE=Dan Stevens - Future Blues
DYEAR=1996
DGENRE=Blues
TTITLE0=Baby, What You Want Me To Do?
TTITLE1=Big Boss Man
TTITLE2=Dilly Dally
TTITLE3=Dust My Broom
TTITLE4=Maybelline
TTITLE5=Big Road Blues
TTITLE6=Police Dog Blues
TTITLE7=Future Blues
TTITLE8=Halfway Woman
TTITLE9=Shame, Shame, Shame
TTITLE10=Key to the Highway
TTITLE11=It'll Be Me
TTITLE12=If You Don't Want Me
TTITLE13=Shake 'Em On Down
TTITLE14=Corinna Corinna
TTITLE15=Terraplane Blues
TTITLE16=Mystery Train
EXTD=
EXTT0=
EXTT1=
EXTT2=
EXTT3=
EXTT4=
EXTT5=
EXTT6=
EXTT7=
EXTT8=
EXTT9=
EXTT10=
EXTT11=
EXTT12=
EXTT13=
EXTT14=
EXTT15=
EXTT16=
PLAYORDER=
